<svg width="48" height="48" viewBox="0 0 48 48" fill="none" xmlns="http://www.w3.org/2000/svg">
<path d="M31.0984 0.456543C33.0195 -0.339216 35.2226 0.5726 36.0183 2.49365L39.071 9.86377L45.4851 12.6528C47.4072 13.4884 48.2876 15.7241 47.4519 17.646L44.8103 23.7202L47.5447 30.3218C48.3402 32.2428 47.4276 34.445 45.5066 35.2407L38.5476 38.1226L35.3474 45.4849C34.5117 47.4066 32.2762 48.2874 30.3542 47.4517L23.364 44.4116L17.6794 46.7671C15.7585 47.5627 13.5564 46.6508 12.7605 44.73L10.2703 38.7192L2.5144 35.3472C0.592682 34.5114 -0.288022 32.2758 0.547607 30.354L3.75269 22.9819L1.23413 16.9019C0.438417 14.9808 1.35027 12.7787 3.27124 11.9829L9.69214 9.32275L12.6531 2.51514C13.4888 0.59322 15.7243 -0.287325 17.6462 0.54834L24.1003 3.354L31.0984 0.456543Z" fill="#0688F5"/>
<path d="M14.1167 22.7054L21.5012 31.1376L33.8831 15.7637" stroke="white" stroke-width="4" stroke-linecap="round"/>
</svg>
