<svg width="172" height="172" viewBox="0 0 172 172" fill="none" xmlns="http://www.w3.org/2000/svg">
<rect width="172" height="172" rx="6" fill="#FED97E"/>
<g clip-path="url(#clip0_30_3506)">
<path d="M13.0025 6.55493C9.45016 6.55493 6.56 9.44509 6.56 12.9975C6.56 16.5498 9.45016 19.44 13.0025 19.44C16.5549 19.44 19.445 16.5501 19.445 12.9975C19.445 9.44481 16.5549 6.55493 13.0025 6.55493ZM15.7294 15.8932C15.6485 16.0147 15.5152 16.0803 15.3794 16.0803C15.2994 16.0803 15.2184 16.0576 15.1468 16.0097C14.4543 15.548 13.28 15.24 12.3 15.2403C11.2601 15.2408 10.4806 15.4962 10.4727 15.4987C10.2532 15.5732 10.0149 15.4533 9.94156 15.2333C9.8682 15.0132 9.9872 14.7752 10.2073 14.7021C10.2442 14.6898 11.1254 14.4011 12.3 14.4005C13.28 14.4 14.643 14.6643 15.613 15.3108C15.8062 15.4396 15.8582 15.7003 15.7294 15.8932ZM16.5672 14.174C16.4762 14.3202 16.3191 14.4005 16.1587 14.4005C16.0719 14.4005 15.984 14.3773 15.905 14.3277C14.6495 13.5454 13.3592 13.3799 12.2476 13.3897C10.9927 13.4009 9.98916 13.6403 9.97208 13.6454C9.71812 13.7176 9.451 13.5692 9.37848 13.3141C9.30596 13.0585 9.45464 12.7928 9.71 12.7205C9.78756 12.6984 10.7891 12.452 12.1603 12.4405C13.4105 12.4302 14.9684 12.6113 16.4138 13.5118C16.6386 13.6518 16.7078 13.9486 16.5672 14.174ZM17.403 12.1636C17.2986 12.3411 17.1115 12.44 16.9194 12.44C16.8231 12.44 16.7257 12.4151 16.6364 12.363C15.1731 11.5039 13.394 11.3217 12.1592 11.32C12.1533 11.32 12.1474 11.32 12.1415 11.32C10.6483 11.32 9.49832 11.5826 9.48684 11.5854C9.185 11.6546 8.88456 11.4681 8.81456 11.1668C8.74456 10.8658 8.93132 10.5651 9.23232 10.4948C9.28412 10.4828 10.5128 10.2 12.1415 10.2C12.148 10.2 12.1544 10.2 12.1608 10.2C13.5342 10.2019 15.5239 10.4108 17.2036 11.397C17.4702 11.5538 17.5595 11.8971 17.403 12.1636Z" fill="black"/>
</g>
<path d="M14.188 52.416H17.268C20.516 52.416 23.232 50.4 23.232 46.088C23.232 41.776 20.544 39.732 17.296 39.732H14.188V52.416ZM17.408 56H10.324V36.148H17.436C23.092 36.148 27.236 39.816 27.236 46.088C27.236 52.36 23.064 56 17.408 56ZM34.0811 56H30.3571V42.224H34.0811V56ZM29.9091 37.716C29.9091 36.428 30.9451 35.392 32.2051 35.392C33.4931 35.392 34.5011 36.428 34.5011 37.716C34.5011 38.948 33.4931 39.984 32.2051 39.984C30.9451 39.984 29.9091 38.948 29.9091 37.716ZM37.0647 56.756L40.4247 55.86C40.6767 57.372 41.8807 58.464 43.6447 58.464C45.9967 58.464 47.3127 57.288 47.3127 54.628V53.62C46.7527 54.516 45.4647 55.384 43.4767 55.384C39.8087 55.384 37.0647 52.556 37.0647 48.692C37.0647 45.052 39.6967 41.972 43.4767 41.972C45.6607 41.972 46.9207 42.924 47.3967 43.848V42.224H50.9807V54.516C50.9807 58.296 48.9367 61.74 43.7567 61.74C39.9767 61.74 37.4567 59.388 37.0647 56.756ZM44.1207 52.192C46.0247 52.192 47.3687 50.82 47.3687 48.692C47.3687 46.564 45.9127 45.22 44.1207 45.22C42.2727 45.22 40.8167 46.564 40.8167 48.692C40.8167 50.848 42.1887 52.192 44.1207 52.192ZM58.4991 56H54.7751V42.224H58.4991V56ZM54.3271 37.716C54.3271 36.428 55.3631 35.392 56.6231 35.392C57.9111 35.392 58.9191 36.428 58.9191 37.716C58.9191 38.948 57.9111 39.984 56.6231 39.984C55.3631 39.984 54.3271 38.948 54.3271 37.716ZM67.1386 38.108V42.224H69.9106V45.528H67.1386V51.296C67.1386 52.5 67.6986 52.892 68.7626 52.892C69.2106 52.892 69.7146 52.836 69.9106 52.78V55.86C69.5746 56 68.9026 56.196 67.8106 56.196C65.1226 56.196 63.4426 54.6 63.4426 51.94V45.528H60.9506V42.224H61.6506C63.1066 42.224 63.7786 41.272 63.7786 40.04V38.108H67.1386ZM72.092 52.248C72.092 49.784 73.912 48.412 76.208 48.076L79.596 47.572C80.38 47.46 80.632 47.068 80.632 46.592C80.632 45.612 79.876 44.8 78.308 44.8C76.684 44.8 75.788 45.836 75.676 47.04L72.372 46.34C72.596 44.184 74.584 41.804 78.28 41.804C82.648 41.804 84.272 44.268 84.272 47.04V53.816C84.272 54.544 84.356 55.524 84.44 56H81.024C80.94 55.636 80.884 54.88 80.884 54.348C80.184 55.44 78.868 56.392 76.824 56.392C73.884 56.392 72.092 54.404 72.092 52.248ZM77.608 53.62C79.176 53.62 80.632 52.864 80.632 50.428V49.812L77.524 50.288C76.572 50.428 75.816 50.96 75.816 52.024C75.816 52.836 76.404 53.62 77.608 53.62ZM91.6944 56H87.9704V35.728H91.6944V56ZM20.124 86L16.232 78.356H14.216V86H10.324V66.148H18.08C21.944 66.148 24.408 68.808 24.408 72.252C24.408 75.024 22.784 77.124 20.18 77.88L24.436 86H20.124ZM14.216 75.024H17.352C19.312 75.024 20.46 73.904 20.46 72.28C20.46 70.6 19.312 69.508 17.352 69.508H14.216V75.024ZM29.7965 77.544H35.9565C35.9005 76.172 35.0045 74.828 32.8765 74.828C30.9445 74.828 29.8805 76.284 29.7965 77.544ZM36.3205 81.128L39.4285 82.052C38.7285 84.432 36.5445 86.42 33.1565 86.42C29.3765 86.42 26.0445 83.704 26.0445 79.056C26.0445 74.66 29.2925 71.804 32.8205 71.804C37.0765 71.804 39.6245 74.52 39.6245 78.944C39.6245 79.476 39.5685 80.036 39.5685 80.092H29.7125C29.7965 81.912 31.3365 83.228 33.1845 83.228C34.9205 83.228 35.8725 82.36 36.3205 81.128ZM41.6831 82.164L44.8751 81.464C44.9591 82.556 45.7711 83.564 47.3951 83.564C48.6271 83.564 49.2151 82.92 49.2151 82.192C49.2151 81.576 48.7951 81.072 47.7311 80.848L45.9111 80.428C43.2511 79.84 42.0471 78.244 42.0471 76.312C42.0471 73.848 44.2311 71.804 47.1991 71.804C51.1191 71.804 52.4351 74.296 52.6031 75.78L49.4951 76.48C49.3831 75.668 48.7951 74.632 47.2271 74.632C46.2471 74.632 45.4631 75.22 45.4631 76.004C45.4631 76.676 45.9671 77.096 46.7231 77.236L48.6831 77.656C51.3991 78.216 52.7711 79.868 52.7711 81.884C52.7711 84.124 51.0351 86.42 47.4231 86.42C43.2791 86.42 41.8511 83.732 41.6831 82.164ZM64.8028 86C64.7468 85.72 64.6908 85.076 64.6908 84.516C63.9348 85.804 62.3388 86.364 60.8828 86.364C57.5508 86.364 55.6468 83.928 55.6468 80.932V72.224H59.3708V80.176C59.3708 81.716 60.1548 82.948 61.8908 82.948C63.5428 82.948 64.4948 81.828 64.4948 80.232V72.224H68.2188V83.508C68.2188 84.572 68.3028 85.524 68.3588 86H64.8028ZM75.753 86H72.029V72.224H75.585V73.904C76.341 72.56 78.105 71.832 79.617 71.832C81.493 71.832 83.005 72.644 83.705 74.128C84.797 72.448 86.253 71.832 88.073 71.832C90.621 71.832 93.057 73.372 93.057 77.068V86H89.445V77.824C89.445 76.34 88.717 75.22 87.009 75.22C85.413 75.22 84.461 76.452 84.461 77.936V86H80.765V77.824C80.765 76.34 80.009 75.22 78.329 75.22C76.705 75.22 75.753 76.424 75.753 77.936V86ZM99.6324 77.544H105.792C105.736 76.172 104.84 74.828 102.712 74.828C100.78 74.828 99.7164 76.284 99.6324 77.544ZM106.156 81.128L109.264 82.052C108.564 84.432 106.38 86.42 102.992 86.42C99.2124 86.42 95.8804 83.704 95.8804 79.056C95.8804 74.66 99.1284 71.804 102.656 71.804C106.912 71.804 109.46 74.52 109.46 78.944C109.46 79.476 109.404 80.036 109.404 80.092H99.5484C99.6324 81.912 101.172 83.228 103.02 83.228C104.756 83.228 105.708 82.36 106.156 81.128Z" fill="black"/>
<path d="M28.3 116H25.164L24.912 113.732C24.016 115.076 22.056 116.42 19.06 116.42C13.712 116.42 9.148 112.5 9.148 106.088C9.148 99.676 13.936 95.728 19.312 95.728C24.52 95.728 27.404 98.78 28.384 101.832L24.688 103.148C24.184 101.384 22.532 99.34 19.312 99.34C16.316 99.34 13.068 101.384 13.068 106.088C13.068 110.568 16.008 112.892 19.34 112.892C23.008 112.892 24.436 110.428 24.66 109.028H18.388V105.668H28.3V116ZM35.503 116H31.779V95.728H35.503V116ZM45.6825 113.032C47.5025 113.032 49.1825 111.716 49.1825 109.112C49.1825 106.508 47.5025 105.192 45.6825 105.192C43.8625 105.192 42.1825 106.508 42.1825 109.112C42.1825 111.688 43.8625 113.032 45.6825 113.032ZM45.6825 101.804C49.7985 101.804 52.9065 104.856 52.9065 109.112C52.9065 113.34 49.7985 116.42 45.6825 116.42C41.5665 116.42 38.4585 113.34 38.4585 109.112C38.4585 104.856 41.5665 101.804 45.6825 101.804ZM59.4808 116H55.8688V95.728H59.5368V103.736C60.1528 102.756 61.6648 101.86 63.7088 101.86C67.7408 101.86 70.0648 104.968 70.0648 109.056C70.0648 113.228 67.4888 116.336 63.5688 116.336C61.6648 116.336 60.2088 115.496 59.4808 114.32V116ZM66.3408 109.084C66.3408 106.564 64.8288 105.192 62.9248 105.192C61.0488 105.192 59.4808 106.564 59.4808 109.084C59.4808 111.576 61.0488 113.004 62.9248 113.004C64.8288 113.004 66.3408 111.604 66.3408 109.084ZM72.2561 112.248C72.2561 109.784 74.0761 108.412 76.3721 108.076L79.7601 107.572C80.5441 107.46 80.7961 107.068 80.7961 106.592C80.7961 105.612 80.0401 104.8 78.4721 104.8C76.8481 104.8 75.9521 105.836 75.8401 107.04L72.5361 106.34C72.7601 104.184 74.7481 101.804 78.4441 101.804C82.8121 101.804 84.4361 104.268 84.4361 107.04V113.816C84.4361 114.544 84.5201 115.524 84.6041 116H81.1881C81.1041 115.636 81.0481 114.88 81.0481 114.348C80.3481 115.44 79.0321 116.392 76.9881 116.392C74.0481 116.392 72.2561 114.404 72.2561 112.248ZM77.7721 113.62C79.3401 113.62 80.7961 112.864 80.7961 110.428V109.812L77.6881 110.288C76.7361 110.428 75.9801 110.96 75.9801 112.024C75.9801 112.836 76.5681 113.62 77.7721 113.62ZM91.8585 116H88.1345V95.728H91.8585V116Z" fill="#917C48"/>
<rect width="27" height="27" transform="translate(0 145)" fill="black"/>
<path d="M16.1716 158.172L9.17162 165.172L7.17162 163.172L14.1716 156.172L8.82847 156.172L8.82847 153.172L19.1422 153.172L19.1422 163.485L16.1716 163.485L16.1716 158.172Z" fill="#FED97E"/>
<path d="M53.3131 18H47.9131V9.492H53.3011V11.28H49.8091V12.9H52.9771V14.568H49.8091V16.2H53.3131V18ZM56.4592 20.28H54.6352V12.036H56.3992V12.648C56.6512 12.264 57.2992 11.892 58.1512 11.892C59.8792 11.892 60.9232 13.212 60.9232 15C60.9232 16.824 59.7472 18.132 58.0792 18.132C57.3112 18.132 56.7352 17.868 56.4592 17.532V20.28ZM59.1352 15.012C59.1352 14.016 58.4992 13.536 57.7792 13.536C57.0712 13.536 56.4352 14.016 56.4352 15.012C56.4352 15.996 57.0712 16.5 57.7792 16.5C58.4992 16.5 59.1352 16.008 59.1352 15.012ZM63.9592 18H62.1352V12.036H63.9592V18ZM61.9792 10.212C61.9792 9.624 62.4592 9.144 63.0352 9.144C63.6352 9.144 64.1152 9.624 64.1152 10.212C64.1152 10.8 63.6352 11.28 63.0352 11.28C62.4592 11.28 61.9792 10.8 61.9792 10.212ZM67.8265 10.296V12.036H68.9905V13.632H67.8265V15.864C67.8265 16.356 68.0905 16.488 68.4865 16.488C68.6785 16.488 68.8585 16.452 68.9665 16.428V17.94C68.8945 17.976 68.5945 18.108 68.0185 18.108C66.7825 18.108 66.0265 17.376 66.0265 16.188V13.632H64.9705V12.036H65.2705C65.8945 12.036 66.1945 11.616 66.1945 11.064V10.296H67.8265ZM71.6385 14.304H74.0265C74.0025 13.848 73.6905 13.296 72.8265 13.296C72.0585 13.296 71.6745 13.86 71.6385 14.304ZM74.1585 15.852L75.6825 16.284C75.3945 17.316 74.4465 18.18 72.9345 18.18C71.2905 18.18 69.8265 17.004 69.8265 15C69.8265 13.08 71.2545 11.856 72.8025 11.856C74.6505 11.856 75.7905 12.996 75.7905 14.916C75.7905 15.168 75.7665 15.444 75.7545 15.48H71.6025C71.6385 16.152 72.2505 16.632 72.9585 16.632C73.6185 16.632 73.9905 16.32 74.1585 15.852ZM79.8503 13.536C79.0943 13.536 78.4823 14.064 78.4823 15.024C78.4823 15.972 79.1183 16.5 79.8743 16.5C80.5823 16.5 80.9783 16.056 81.1103 15.612L82.7183 16.104C82.4543 17.148 81.4703 18.18 79.8743 18.18C78.0983 18.18 76.6703 16.872 76.6703 15.024C76.6703 13.164 78.0623 11.856 79.8143 11.856C81.4583 11.856 82.4183 12.864 82.6823 13.932L81.0503 14.424C80.9183 13.968 80.5583 13.536 79.8503 13.536ZM85.6389 14.496V18H83.8149V9.312H85.6389V12.42C86.0109 12.048 86.6349 11.88 87.1629 11.88C88.7229 11.88 89.4189 12.948 89.4189 14.256V18H87.5949V14.568C87.5949 13.98 87.2829 13.536 86.6229 13.536C86.0469 13.536 85.6749 13.944 85.6389 14.496ZM93.8741 9.492H97.0541C98.7341 9.492 99.7061 10.464 99.7061 11.772C99.7061 12.648 99.1541 13.368 98.4581 13.596C99.2261 13.776 99.9701 14.484 99.9701 15.588C99.9701 16.98 98.9141 18 97.3061 18H93.8741V9.492ZM95.7221 12.9H96.7541C97.4141 12.9 97.8461 12.552 97.8461 11.976C97.8461 11.424 97.4741 11.064 96.7301 11.064H95.7221V12.9ZM95.7221 16.452H96.9101C97.6421 16.452 98.0861 16.068 98.0861 15.456C98.0861 14.868 97.6541 14.46 96.9101 14.46H95.7221V16.452ZM100.905 16.356C100.905 15.3 101.685 14.7 102.669 14.556L104.073 14.34C104.397 14.292 104.505 14.136 104.505 13.932C104.505 13.584 104.205 13.284 103.629 13.284C102.993 13.284 102.645 13.716 102.609 14.16L101.025 13.836C101.097 12.984 101.889 11.856 103.641 11.856C105.573 11.856 106.281 12.936 106.281 14.16V17.076C106.281 17.544 106.341 17.94 106.353 18H104.709C104.697 17.952 104.649 17.736 104.649 17.328C104.337 17.832 103.761 18.168 102.969 18.168C101.661 18.168 100.905 17.304 100.905 16.356ZM103.413 16.848C103.953 16.848 104.505 16.584 104.505 15.66V15.396L103.377 15.576C102.993 15.636 102.705 15.816 102.705 16.236C102.705 16.548 102.909 16.848 103.413 16.848ZM110.612 13.536C109.856 13.536 109.244 14.064 109.244 15.024C109.244 15.972 109.88 16.5 110.636 16.5C111.344 16.5 111.74 16.056 111.872 15.612L113.48 16.104C113.216 17.148 112.232 18.18 110.636 18.18C108.86 18.18 107.432 16.872 107.432 15.024C107.432 13.164 108.824 11.856 110.576 11.856C112.22 11.856 113.18 12.864 113.444 13.932L111.812 14.424C111.68 13.968 111.32 13.536 110.612 13.536ZM116.401 14.496V18H114.577V9.312H116.401V12.42C116.773 12.048 117.397 11.88 117.925 11.88C119.485 11.88 120.181 12.948 120.181 14.256V18H118.357V14.568C118.357 13.98 118.045 13.536 117.385 13.536C116.809 13.536 116.437 13.944 116.401 14.496ZM123.131 14.304H125.519C125.495 13.848 125.183 13.296 124.319 13.296C123.551 13.296 123.167 13.86 123.131 14.304ZM125.651 15.852L127.175 16.284C126.887 17.316 125.939 18.18 124.427 18.18C122.783 18.18 121.319 17.004 121.319 15C121.319 13.08 122.747 11.856 124.295 11.856C126.143 11.856 127.283 12.996 127.283 14.916C127.283 15.168 127.259 15.444 127.247 15.48H123.095C123.131 16.152 123.743 16.632 124.451 16.632C125.111 16.632 125.483 16.32 125.651 15.852ZM130.322 18H128.498V9.312H130.322V18ZM134.694 16.5C135.39 16.5 136.038 16.02 136.038 15.012C136.038 14.004 135.39 13.536 134.694 13.536C134.01 13.536 133.35 14.004 133.35 15.012C133.35 16.008 134.01 16.5 134.694 16.5ZM134.694 11.856C136.482 11.856 137.862 13.164 137.862 15.012C137.862 16.86 136.482 18.18 134.694 18.18C132.918 18.18 131.526 16.86 131.526 15.012C131.526 13.164 132.918 11.856 134.694 11.856ZM142.849 12.036V13.836C142.645 13.788 142.453 13.776 142.273 13.776C141.541 13.776 140.881 14.208 140.881 15.396V18H139.057V12.036H140.821V12.84C141.133 12.168 141.889 11.976 142.369 11.976C142.549 11.976 142.729 12 142.849 12.036ZM149.716 18H147.832V12.36H145.924V11.088C147.172 11.064 147.94 10.368 148.096 9.492H149.716V18ZM150.92 16.308L152.468 16.032C152.492 16.44 152.78 16.836 153.404 16.836C153.872 16.836 154.1 16.584 154.1 16.32C154.1 16.104 153.956 15.924 153.512 15.828L152.828 15.672C151.556 15.396 151.052 14.676 151.052 13.836C151.052 12.744 152.012 11.856 153.344 11.856C155.072 11.856 155.672 12.936 155.732 13.632L154.22 13.908C154.172 13.512 153.92 13.176 153.368 13.176C153.02 13.176 152.72 13.38 152.72 13.692C152.72 13.944 152.924 14.088 153.188 14.136L153.98 14.292C155.216 14.544 155.816 15.288 155.816 16.164C155.816 17.184 155.036 18.18 153.44 18.18C151.568 18.18 150.968 16.968 150.92 16.308ZM159.373 10.296V12.036H160.537V13.632H159.373V15.864C159.373 16.356 159.637 16.488 160.033 16.488C160.225 16.488 160.405 16.452 160.513 16.428V17.94C160.441 17.976 160.141 18.108 159.565 18.108C158.329 18.108 157.573 17.376 157.573 16.188V13.632H156.517V12.036H156.817C157.441 12.036 157.741 11.616 157.741 11.064V10.296H159.373Z" fill="black"/>
<defs>
<clipPath id="clip0_30_3506">
<rect width="14" height="14" fill="white" transform="translate(6 6)"/>
</clipPath>
</defs>
</svg>
