<svg width="10" height="10" viewBox="0 0 10 10" fill="none" xmlns="http://www.w3.org/2000/svg">
<g clip-path="url(#clip0_58_13145)">
<path d="M5 0.909091C4.46277 0.909091 3.93081 1.01491 3.43448 1.22049C2.93814 1.42608 2.48717 1.72741 2.10729 2.10729C1.72741 2.48717 1.42608 2.93814 1.22049 3.43448C1.01491 3.93081 0.909091 4.46277 0.909091 5C0.909091 5.53723 1.01491 6.06919 1.22049 6.56552C1.42608 7.06186 1.72741 7.51283 2.10729 7.89271C2.48717 8.27259 2.93814 8.57392 3.43448 8.77951C3.93081 8.9851 4.46277 9.09091 5 9.09091C6.08498 9.09091 7.12552 8.6599 7.89271 7.89271C8.6599 7.12552 9.09091 6.08498 9.09091 5C9.09091 3.91502 8.6599 2.87448 7.89271 2.10729C7.12552 1.3401 6.08498 0.909091 5 0.909091ZM0 5C0 2.23864 2.23864 0 5 0C7.76136 0 10 2.23864 10 5C10 7.76136 7.76136 10 5 10C2.23864 10 0 7.76136 0 5Z" fill="#B3B3B3"/>
<path d="M7.49959 5C7.49959 5.11051 7.45569 5.21649 7.37755 5.29463C7.29941 5.37277 7.19343 5.41667 7.08292 5.41667H5.41625V7.08333C5.41625 7.19384 5.37236 7.29982 5.29422 7.37796C5.21608 7.4561 5.11009 7.5 4.99959 7.5C4.88908 7.5 4.7831 7.4561 4.70496 7.37796C4.62682 7.29982 4.58292 7.19384 4.58292 7.08333V5.41667H2.91625C2.80575 5.41667 2.69977 5.37277 2.62163 5.29463C2.54349 5.21649 2.49959 5.11051 2.49959 5C2.49959 4.88949 2.54349 4.78351 2.62163 4.70537C2.69977 4.62723 2.80575 4.58333 2.91625 4.58333H4.58292V2.91667C4.58292 2.80616 4.62682 2.70018 4.70496 2.62204C4.7831 2.5439 4.88908 2.5 4.99959 2.5C5.11009 2.5 5.21608 2.5439 5.29422 2.62204C5.37236 2.70018 5.41625 2.80616 5.41625 2.91667V4.58333H7.08292C7.19343 4.58333 7.29941 4.62723 7.37755 4.70537C7.45569 4.78351 7.49959 4.88949 7.49959 5Z" fill="#B3B3B3"/>
</g>
<defs>
<clipPath id="clip0_58_13145">
<rect width="10" height="10" fill="white"/>
</clipPath>
</defs>
</svg>
