<svg width="132" height="132" viewBox="0 0 132 132" fill="none" xmlns="http://www.w3.org/2000/svg">
<rect width="132" height="132" rx="66" fill="#3BE377"/>
<path d="M53.8208 43.2541L90.0608 64.3579C90.3464 64.5244 90.5835 64.7639 90.7484 65.0521C90.9132 65.3403 91 65.6672 91 66C91 66.3328 90.9132 66.6597 90.7484 66.9479C90.5835 67.2361 90.3464 67.4756 90.0608 67.6421L53.8208 88.7459C53.5349 88.9123 53.2107 89 52.8807 89C52.5506 89 52.2264 88.9124 51.9405 88.746C51.6546 88.5796 51.4173 88.3402 51.2522 88.052C51.0871 87.7637 51.0001 87.4367 51 87.1037V44.8963C51.0001 44.5633 51.0871 44.2363 51.2522 43.948C51.4173 43.6598 51.6546 43.4204 51.9405 43.254C52.2264 43.0876 52.5506 43 52.8807 43C53.2107 43 53.5349 43.0877 53.8208 43.2541Z" fill="black"/>
</svg>
